<svg width="462" height="847" viewBox="0 0 462 847" fill="none" xmlns="http://www.w3.org/2000/svg">
<path d="M386.119 804.227L386.123 804.225C435.976 772.487 461 730.424 461 678.083C461 627.841 438.96 588.715 394.981 560.794C375.389 548.333 353.285 539.289 328.678 533.658C304.371 527.732 276.533 524.776 245.174 524.776C215.638 524.776 187.562 530.908 160.957 543.17C166.148 537.604 173.893 530.742 184.225 522.576L184.231 522.571L184.237 522.567C196.877 512.282 235.498 486.64 300.191 445.597L300.195 445.594C311.738 438.198 323.132 430.063 334.375 421.191C345.927 412.309 356.738 402.686 366.81 392.323C377.192 381.944 386.242 370.673 393.958 358.512C401.976 346.044 408.361 332.687 413.111 318.441C417.857 304.209 420.25 291.701 420.25 280.934C420.25 270.441 419.962 261.938 419.384 255.436C441.226 209.314 452.141 158.922 452.141 104.276C452.141 70.1516 449.078 44.4426 442.891 27.2307C439.796 18.6195 435.895 12.0669 431.141 7.65898C426.366 3.23036 420.763 1 414.377 1H376.284C370.509 1 365.308 2.3695 360.71 5.12718C357.604 6.99016 354.845 9.7627 352.419 13.3994L352.414 13.4083L352.408 13.4173C350.202 16.8821 349.151 21.5206 349.151 27.2369C349.151 30.1549 350.022 36.0081 351.716 44.6956C353.417 53.42 355.967 65.0923 359.364 79.708L359.367 79.7196C366.078 107.112 369.602 133.697 369.942 159.478C363.935 148.453 356.236 138.516 346.85 129.67C313.25 97.8682 267.06 82.0236 208.41 82.0236C153.862 82.0236 106.83 98.1796 67.3643 130.51L67.3607 130.513C24.3069 166.129 2.77176 212.608 2.77176 269.865C2.77176 319.748 21.9478 361.491 60.2523 395.031L60.255 395.033C93.6531 424.063 133.868 441.009 180.862 445.888C151.147 463.236 123.936 482.678 99.2326 504.213L99.2283 504.216C33.8445 561.884 1 621.759 1 683.838C1 734.969 23.7816 775.416 69.2229 805.104L69.2262 805.106C111.357 832.391 163.973 846 227.014 846C288.883 846 341.933 832.091 386.119 804.227ZM289.685 339.519L289.681 339.523C280.037 348.287 268.93 355.009 256.352 359.688C243.777 364.072 229.866 366.271 214.611 366.271C199.655 366.271 185.443 364.073 171.968 359.682C158.795 354.999 147.246 348.42 137.309 339.95C127.376 331.188 119.636 320.823 114.085 308.849C108.543 296.895 105.762 283.464 105.762 268.537C105.762 253.317 108.69 240.049 114.511 228.703L114.511 228.703C132.315 193.984 164.55 176.559 211.511 176.559C241.159 176.559 266.04 184.038 286.214 198.942C308.982 215.864 320.36 239.027 320.36 268.537C320.36 297.491 310.133 321.124 289.685 339.519ZM339.655 643.765L339.661 643.772L339.666 643.778C348.348 653.324 352.694 664.887 352.694 678.525C352.694 692.22 349.2 703.502 342.277 712.443C320.702 739.54 282.398 753.236 227.014 753.236C191.997 753.236 162.947 746.618 139.81 733.445C127.821 726.429 118.19 717.671 110.899 707.176C103.651 696.744 100.004 684.111 100.004 669.227C100.004 654.476 105.337 641.008 116.069 628.797C125.497 622.012 139.149 616.87 157.107 613.427C175.111 609.974 197.375 608.242 223.913 608.242C258.389 608.242 286.299 612.662 307.692 621.45L307.693 621.45C320.555 626.71 331.202 634.15 339.655 643.765Z" stroke="#28CC97" stroke-width="2"/>
</svg>
