<svg width="450" height="220" viewBox="0 0 450 220" fill="none" xmlns="http://www.w3.org/2000/svg">
<path d="M279.461 175.971C277.566 175.971 276.619 175.035 276.619 173.163C276.619 171.013 275.96 169.372 274.643 168.24C273.51 167.246 271.985 166.749 270.066 166.749C268.171 166.749 266.6 167.142 265.352 167.928C264.104 168.714 263.087 169.719 262.301 170.944C260.775 173.348 260.013 176.237 260.013 179.611C260.013 185.92 261.931 190.058 265.768 192.022C267.154 192.739 268.691 193.097 270.378 193.097C272.066 193.097 273.452 192.912 274.539 192.542C275.625 192.172 276.596 191.768 277.451 191.329C278.306 190.89 279.045 190.485 279.669 190.115C280.317 189.746 280.848 189.561 281.264 189.561C282.096 189.561 282.755 189.942 283.24 190.705L284.003 191.987C284.35 192.588 284.523 193.178 284.523 193.755C284.523 194.31 284.292 194.899 283.83 195.523C283.367 196.124 282.743 196.679 281.958 197.188C281.195 197.696 280.317 198.158 279.323 198.574C278.329 198.99 277.3 199.349 276.237 199.649C271.153 201.013 266.507 200.805 262.301 199.025C257.586 197.037 254.339 193.478 252.559 188.347C251.681 185.805 251.242 182.962 251.242 179.819C251.242 176.676 251.704 173.856 252.628 171.36C253.576 168.864 254.882 166.749 256.546 165.016C259.99 161.456 264.485 159.677 270.032 159.677C274.931 159.677 278.687 160.96 281.299 163.525C283.494 165.721 284.592 168.471 284.592 171.776C284.592 174.572 283.159 175.971 280.293 175.971H279.461ZM300.644 182.003L300.609 182.662C300.609 185.828 301.614 188.37 303.625 190.289C305.728 192.322 308.583 193.339 312.188 193.339C315.47 193.339 318.521 192.357 321.34 190.393C321.872 190.023 322.346 189.838 322.762 189.838C323.617 189.838 324.264 190.266 324.703 191.121L325.639 193.062C325.847 193.524 325.951 194.021 325.951 194.553C325.951 195.084 325.708 195.639 325.223 196.217C324.761 196.772 324.148 197.28 323.386 197.742C322.623 198.204 321.733 198.609 320.716 198.956C319.722 199.302 318.694 199.591 317.631 199.822C315.505 200.285 313.286 200.516 310.975 200.516C308.663 200.516 306.329 200.077 303.972 199.198C301.637 198.32 299.615 197.037 297.905 195.35C294.23 191.768 292.393 186.926 292.393 180.824C292.393 170.123 296.16 163.467 303.694 160.856C306.052 160.047 308.467 159.642 310.94 159.642C313.436 159.642 315.551 159.908 317.284 160.44C319.041 160.971 320.555 161.757 321.826 162.797C324.507 164.993 325.847 168.055 325.847 171.984C325.847 175.844 324.276 178.79 321.132 180.824C318.382 182.604 314.753 183.494 310.247 183.494C307.473 183.494 304.272 182.997 300.644 182.003ZM317.7 171.88C317.7 168.575 315.481 166.922 311.044 166.922C306.814 166.922 303.856 168.471 302.169 171.568C301.568 172.654 301.175 173.995 300.99 175.589C302.978 176.583 305.509 177.08 308.583 177.08C314.661 177.08 317.7 175.347 317.7 171.88ZM367.726 197.812C367.726 199.037 367.125 199.649 365.923 199.649H362.561C361.659 199.649 361.116 199.476 360.931 199.129C360.746 198.759 360.642 198.436 360.619 198.158C360.596 197.858 360.55 197.5 360.48 197.084C360.342 195.951 360.145 194.726 359.891 193.409C358.088 196.714 355.257 198.898 351.397 199.961C350.034 200.331 348.532 200.516 346.891 200.516C345.25 200.516 343.609 200.238 341.968 199.684C340.327 199.152 338.871 198.355 337.6 197.292C334.734 194.888 333.301 191.733 333.301 187.827C333.301 183.551 334.872 180.281 338.016 178.016C340.604 176.19 343.932 175.277 348 175.277C352.068 175.277 355.511 176.468 358.331 178.848C358.4 178.062 358.435 177.08 358.435 175.901C358.435 174.723 358.204 173.544 357.742 172.365C357.279 171.187 356.621 170.204 355.766 169.419C354.009 167.87 351.559 167.096 348.416 167.096C345.596 167.096 342.73 167.87 339.818 169.419C339.264 169.719 338.778 169.869 338.362 169.869C337.738 169.869 337.137 169.257 336.56 168.032C335.936 166.784 335.624 165.882 335.624 165.328C335.624 164.311 336.386 163.329 337.912 162.381C340.824 160.578 344.718 159.677 349.595 159.677C354.032 159.677 357.707 160.89 360.619 163.317C364.063 166.229 365.785 170.343 365.785 175.659C365.785 178.016 365.403 180.986 364.641 184.568C366.605 190.162 367.634 194.576 367.726 197.812ZM344.499 183.112C343.551 183.806 342.869 184.499 342.453 185.192C342.06 185.886 341.864 186.706 341.864 187.654C341.864 188.578 342.026 189.41 342.349 190.15C342.696 190.866 343.17 191.467 343.771 191.953C345.042 192.947 346.463 193.443 348.035 193.443C349.629 193.443 350.935 193.259 351.952 192.889C352.969 192.519 353.847 192.045 354.587 191.467C356.182 190.219 356.979 188.902 356.979 187.515C356.84 185.782 355.881 184.418 354.102 183.424C352.507 182.5 350.623 182.038 348.451 182.038C346.764 182.038 345.446 182.396 344.499 183.112ZM388.596 193.409C393.034 193.409 395.252 191.918 395.252 188.937C395.252 187.296 393.993 185.909 391.474 184.776C390.41 184.291 389.243 183.84 387.972 183.424C386.724 183.008 385.522 182.511 384.367 181.934C383.211 181.356 382.125 180.732 381.108 180.062C380.114 179.368 379.247 178.582 378.508 177.704C376.982 175.855 376.22 173.509 376.22 170.667C376.22 167.2 377.664 164.449 380.553 162.416C383.119 160.59 386.273 159.677 390.018 159.677C394.039 159.677 397.402 160.463 400.106 162.034C401.03 162.589 401.493 163.225 401.493 163.941C401.493 164.958 401.215 166.079 400.661 167.304C400.129 168.506 399.493 169.107 398.754 169.107C398.037 169.107 397.379 168.956 396.778 168.656C396.2 168.355 395.668 168.101 395.183 167.893C394.721 167.662 394.224 167.477 393.692 167.338C392.537 166.992 391.462 166.818 390.468 166.818C389.498 166.818 388.712 166.888 388.111 167.026C387.51 167.165 386.967 167.385 386.481 167.685C385.303 168.402 384.713 169.28 384.713 170.32C384.713 171.36 384.944 172.157 385.407 172.712C385.892 173.267 386.551 173.775 387.383 174.237C388.215 174.7 389.209 175.162 390.364 175.624L394.108 177.184C397.136 178.502 399.181 179.692 400.245 180.755C402.325 182.881 403.365 185.343 403.365 188.139C403.365 191.652 402.163 194.541 399.759 196.806C397.101 199.279 393.323 200.516 388.423 200.516C383.454 200.516 379.721 199.557 377.225 197.638C376 196.714 375.388 195.882 375.388 195.142C375.388 194.403 375.515 193.744 375.769 193.166C376.046 192.565 376.393 191.872 376.809 191.086C377.248 190.277 377.826 189.873 378.542 189.873C379.282 189.873 380.056 190.208 380.865 190.878C381.697 191.525 382.83 192.114 384.263 192.646C385.696 193.155 387.14 193.409 388.596 193.409ZM444.689 197.812C444.689 199.037 444.088 199.649 442.886 199.649H439.523C438.622 199.649 438.079 199.476 437.894 199.129C437.709 198.759 437.605 198.436 437.582 198.158C437.559 197.858 437.513 197.5 437.443 197.084C437.305 195.951 437.108 194.726 436.854 193.409C435.051 196.714 432.22 198.898 428.36 199.961C426.997 200.331 425.494 200.516 423.854 200.516C422.213 200.516 420.572 200.238 418.931 199.684C417.29 199.152 415.834 198.355 414.562 197.292C411.697 194.888 410.264 191.733 410.264 187.827C410.264 183.551 411.835 180.281 414.979 178.016C417.567 176.19 420.895 175.277 424.963 175.277C429.031 175.277 432.474 176.468 435.294 178.848C435.363 178.062 435.398 177.08 435.398 175.901C435.398 174.723 435.167 173.544 434.705 172.365C434.242 171.187 433.584 170.204 432.729 169.419C430.972 167.87 428.522 167.096 425.379 167.096C422.559 167.096 419.693 167.87 416.781 169.419C416.227 169.719 415.741 169.869 415.325 169.869C414.701 169.869 414.1 169.257 413.522 168.032C412.898 166.784 412.586 165.882 412.586 165.328C412.586 164.311 413.349 163.329 414.875 162.381C417.787 160.578 421.681 159.677 426.558 159.677C430.995 159.677 434.67 160.89 437.582 163.317C441.026 166.229 442.748 170.343 442.748 175.659C442.748 178.016 442.366 180.986 441.604 184.568C443.568 190.162 444.597 194.576 444.689 197.812ZM421.461 183.112C420.514 183.806 419.832 184.499 419.416 185.192C419.023 185.886 418.827 186.706 418.827 187.654C418.827 188.578 418.988 189.41 419.312 190.15C419.659 190.866 420.132 191.467 420.733 191.953C422.005 192.947 423.426 193.443 424.998 193.443C426.592 193.443 427.898 193.259 428.915 192.889C429.932 192.519 430.81 192.045 431.55 191.467C433.145 190.219 433.942 188.902 433.942 187.515C433.803 185.782 432.844 184.418 431.064 183.424C429.47 182.5 427.586 182.038 425.414 182.038C423.726 182.038 422.409 182.396 421.461 183.112Z" fill="white"/>
<path d="M100.852 138.266C100.852 141.855 99.0911 143.649 95.5703 143.649H85.7188C83.0781 143.649 81.487 143.141 80.9453 142.126C80.4036 141.042 80.099 140.094 80.0312 139.282C79.9635 138.402 79.8281 137.352 79.625 136.133C79.2188 132.816 78.6432 129.227 77.8984 125.368C72.6172 135.05 64.3229 141.448 53.0156 144.563C49.0208 145.646 44.6198 146.188 39.8125 146.188C35.0052 146.188 30.1979 145.376 25.3906 143.751C20.5833 142.193 16.3177 139.857 12.5938 136.743C4.19792 129.701 0 120.459 0 109.016C0 96.4901 4.60417 86.9094 13.8125 80.274C21.3958 74.925 31.1458 72.2505 43.0625 72.2505C54.9792 72.2505 65.0677 75.7375 73.3281 82.7115C73.5312 80.4094 73.6328 77.5318 73.6328 74.0787C73.6328 70.6255 72.9557 67.1724 71.6016 63.7193C70.2474 60.2662 68.3177 57.3886 65.8125 55.0865C60.6667 50.55 53.4896 48.2818 44.2812 48.2818C36.0208 48.2818 27.625 50.55 19.0938 55.0865C17.4688 55.9667 16.0469 56.4068 14.8281 56.4068C13 56.4068 11.2396 54.6125 9.54688 51.024C7.71875 47.3677 6.80469 44.7271 6.80469 43.1021C6.80469 40.1229 9.03906 37.2453 13.5078 34.4693C22.0391 29.188 33.4479 26.5474 47.7344 26.5474C60.7344 26.5474 71.5 30.1021 80.0312 37.2115C90.1198 45.7427 95.1641 57.7948 95.1641 73.3677C95.1641 80.274 94.0469 88.9745 91.8125 99.4693C97.5677 115.855 100.581 128.787 100.852 138.266ZM32.8047 95.2037C30.0286 97.2349 28.0312 99.2662 26.8125 101.297C25.6615 103.329 25.0859 105.732 25.0859 108.508C25.0859 111.217 25.5599 113.654 26.5078 115.821C27.5234 117.92 28.9115 119.68 30.6719 121.102C34.3958 124.014 38.5599 125.469 43.1641 125.469C47.8359 125.469 51.6615 124.928 54.6406 123.844C57.6198 122.761 60.1927 121.373 62.3594 119.68C67.0312 116.024 69.3672 112.165 69.3672 108.102C68.9609 103.024 66.151 99.0292 60.9375 96.1177C56.2656 93.4094 50.7474 92.0552 44.3828 92.0552C39.4401 92.0552 35.5807 93.1047 32.8047 95.2037Z" fill="#28CC97"/>
<path d="M158.133 132.782C164.497 129.667 171.234 128.11 178.344 128.11C185.521 128.11 191.885 128.787 197.438 130.141C203.057 131.428 208.102 133.493 212.57 136.336C222.591 142.701 227.602 151.605 227.602 163.047C227.602 174.964 221.914 184.545 210.539 191.79C200.451 198.154 188.331 201.336 174.18 201.336C159.758 201.336 147.74 198.222 138.125 191.993C127.766 185.222 122.586 176.014 122.586 164.368C122.586 150.217 130.068 136.54 145.031 123.336C150.854 118.258 157.286 113.688 164.328 109.626C153.292 108.61 143.88 104.717 136.094 97.9458C127.359 90.2948 122.992 80.7818 122.992 69.4068C122.992 56.3391 127.901 45.7427 137.719 37.6177C146.724 30.2375 157.456 26.5474 169.914 26.5474C183.32 26.5474 193.849 30.1698 201.5 37.4146C203.87 39.649 205.766 42.188 207.188 45.0318C207.188 38.8026 206.375 32.3703 204.75 25.7349C203.193 19.0318 202.414 15.037 202.414 13.7505C202.414 12.4641 202.651 11.4485 203.125 10.7037C203.667 9.89116 204.276 9.28178 204.953 8.87553C205.969 8.26616 207.12 7.96147 208.406 7.96147H217.141C222.76 7.96147 225.57 15.7818 225.57 31.4224C225.57 43.9485 223.065 55.4927 218.055 66.0552C218.19 67.5448 218.258 69.5083 218.258 71.9458C218.258 74.3833 217.716 77.2271 216.633 80.4771C215.549 83.7271 214.094 86.774 212.266 89.6177C210.505 92.3938 208.44 94.9667 206.07 97.3365C203.768 99.7063 201.297 101.907 198.656 103.938C196.083 105.969 193.477 107.831 190.836 109.524C176.008 118.935 167.138 124.826 164.227 127.196C161.315 129.498 159.284 131.36 158.133 132.782ZM153.461 85.6568C155.763 87.6203 158.438 89.1438 161.484 90.2271C164.599 91.2427 167.883 91.7505 171.336 91.7505C174.857 91.7505 178.073 91.2427 180.984 90.2271C183.896 89.1438 186.469 87.5865 188.703 85.5552C193.443 81.2896 195.812 75.8052 195.812 69.1021C195.812 62.2636 193.172 56.8807 187.891 52.9537C183.219 49.5005 177.464 47.774 170.625 47.774C159.792 47.774 152.31 51.8026 148.18 59.8599C146.826 62.5005 146.148 65.5813 146.148 69.1021C146.148 72.5552 146.792 75.6698 148.078 78.4458C149.365 81.2219 151.159 83.6255 153.461 85.6568ZM148.586 151.571C146.081 154.415 144.828 157.563 144.828 161.016C144.828 164.469 145.674 167.415 147.367 169.852C149.06 172.29 151.294 174.321 154.07 175.946C159.419 178.993 166.122 180.516 174.18 180.516C186.909 180.516 195.779 177.368 200.789 171.071C202.414 168.972 203.227 166.331 203.227 163.149C203.227 159.967 202.211 157.258 200.18 155.024C198.216 152.79 195.745 151.063 192.766 149.844C187.823 147.813 181.391 146.797 173.469 146.797C161.281 146.797 152.987 148.389 148.586 151.571Z" fill="#28CC97"/>
<path d="M248.93 36.399C248.93 31.524 251.062 29.0865 255.328 29.0865H260.812C264.536 29.0865 267.177 30.7115 268.734 33.9615C270.969 38.7011 272.594 45.2349 273.609 53.563C273.609 53.6985 273.643 53.7662 273.711 53.7662C273.846 53.7662 274.083 52.6151 274.422 50.313C274.76 48.011 275.742 45.2011 277.367 41.8833C278.992 38.4979 280.99 35.6542 283.359 33.3521C288.167 28.8156 294.057 26.5474 301.031 26.5474C308.818 26.5474 314.234 27.8339 317.281 30.4068C318.703 31.5578 319.279 33.149 319.008 35.1802L317.383 47.9771C316.977 51.4302 315.216 53.1568 312.102 53.1568C310.612 53.1568 308.784 52.8521 306.617 52.2427C302.419 51.1594 299.102 50.6177 296.664 50.6177C294.227 50.6177 291.654 51.7011 288.945 53.8677C286.237 55.9667 283.901 58.6073 281.938 61.7896C277.943 68.425 275.945 75.5005 275.945 83.0162V136.946C275.945 138.842 275.404 140.433 274.32 141.719C273.237 143.006 271.68 143.649 269.648 143.649H257.867C255.701 143.649 254.042 143.006 252.891 141.719C251.807 140.433 251.266 138.842 251.266 136.946V66.9693C251.266 55.0526 250.859 47.1985 250.047 43.4068C249.302 39.5474 248.93 37.2115 248.93 36.399Z" fill="#28CC97"/>
<path d="M331.703 85.9615C331.703 77.1594 333.159 69.1021 336.07 61.7896C339.049 54.4094 343.112 48.1125 348.258 42.899C359.023 31.9979 372.599 26.5474 388.984 26.5474C407.333 26.5474 421.552 31.9979 431.641 42.899C441.391 53.3938 446.266 67.8156 446.266 86.1646C446.266 103.904 440.747 118.394 429.711 129.633C418.945 140.67 405.37 146.188 388.984 146.188C371.719 146.188 357.839 140.534 347.344 129.227C336.917 118.191 331.703 103.769 331.703 85.9615ZM364.305 60.1646C361.799 63.8886 359.971 68.1542 358.82 72.9615C357.669 77.7011 357.094 82.5422 357.094 87.4849C357.094 92.3599 357.737 97.0656 359.023 101.602C360.378 106.071 362.375 110.066 365.016 113.586C370.839 121.305 378.964 125.165 389.391 125.165C400.021 125.165 408.078 121.373 413.562 113.79C418.438 107.154 420.875 98.1151 420.875 86.6724C420.875 69.5422 415.255 57.7271 404.016 51.2271C399.885 48.8573 394.875 47.6724 388.984 47.6724C383.161 47.6724 378.219 48.8235 374.156 51.1255C370.161 53.3599 366.878 56.3729 364.305 60.1646Z" fill="#28CC97"/>
<g clip-path="url(#clip0_15_170)">
<path d="M225.148 29.1248C224.263 31.6872 222.447 33.8233 220.06 35.1092C217.673 36.3952 214.891 36.7372 212.263 36.0674C209.636 35.3976 207.357 33.765 205.877 31.4932C204.398 29.2215 203.826 26.4766 204.275 23.803C205.572 14.9343 205.577 12.4832 202.979 8.30612C206.403 7.8658 210.09 7.51705 215.658 9.46032C223.676 12.2582 227.804 21.5154 225.148 29.1248Z" stroke="#292E32" stroke-width="2" stroke-linecap="round" stroke-linejoin="round"/>
<path d="M214.504 22.1397C215.453 24.1061 216.397 28.5237 215.866 32.2956C215.644 33.8706 215.682 34.8343 216.047 36.149" stroke="#292E32" stroke-width="2" stroke-linecap="round" stroke-linejoin="round"/>
<path d="M213.047 8.14896L211.547 4.64896L213.547 3.64897L222.547 3.64897L227.047 11.649L224.547 15.649L219.547 12.149L213.047 8.14896Z" fill="#292E32"/>
<path d="M204.547 13.649L203.547 9.64896L202.047 10.149L199.797 13.649L199.047 20.149L203.547 21.649L204.547 19.649L204.547 13.649Z" fill="#292E32"/>
<path d="M225.148 29.1249C224.263 31.6873 222.447 33.8233 220.06 35.1093C217.673 36.3952 214.891 36.7372 212.263 36.0675C209.636 35.3977 207.357 33.765 205.877 31.4932C204.398 29.2215 203.826 26.4766 204.275 23.8031C205.572 14.9344 205.577 12.4832 202.979 8.30613C206.403 7.86582 210.09 7.51706 215.658 9.46034C223.676 12.2582 227.804 21.5154 225.148 29.1249Z" stroke="#292E32" stroke-width="2" stroke-linecap="round" stroke-linejoin="round"/>
<path d="M214.504 22.1397C215.453 24.1061 216.397 28.5237 215.866 32.2957C215.644 33.8706 215.682 34.8343 216.047 36.149" stroke="#292E32" stroke-width="2" stroke-linecap="round" stroke-linejoin="round"/>
<path d="M213.047 8.14896L211.547 4.64896L213.547 3.64897L222.547 3.64897L227.047 11.649L224.547 15.649L219.547 12.149L213.047 8.14896Z" fill="#292E32"/>
<path d="M204.547 13.649L203.547 9.64896L202.047 10.149L199.797 13.649L199.047 20.149L203.547 21.649L204.547 19.649L204.547 13.649Z" fill="#292E32"/>
</g>
<defs>
<clipPath id="clip0_15_170">
<rect width="37.0549" height="37.0549" fill="white" transform="translate(190.398 34.9858) rotate(-70.7624)"/>
</clipPath>
</defs>
</svg>
