<svg width="285" height="285" viewBox="0 0 285 285" fill="none" xmlns="http://www.w3.org/2000/svg">
<rect width="285" height="285" fill="#292E32"/>
<path d="M122.547 167.843C128.911 164.729 135.648 163.171 142.758 163.171C149.935 163.171 156.299 163.848 161.852 165.203C167.471 166.489 172.516 168.554 176.984 171.398C187.005 177.763 192.016 186.666 192.016 198.109C192.016 210.026 186.328 219.606 174.953 226.851C164.865 233.216 152.745 236.398 138.594 236.398C124.172 236.398 112.154 233.283 102.539 227.054C92.1797 220.283 87 211.075 87 199.429C87 185.278 94.4818 171.601 109.445 158.398C115.268 153.32 121.701 148.75 128.742 144.687C117.706 143.671 108.294 139.778 100.508 133.007C91.7734 125.356 87.4062 115.843 87.4062 104.468C87.4062 91.4006 92.3151 80.8042 102.133 72.6792C111.138 65.299 121.87 61.6089 134.328 61.6089C147.734 61.6089 158.263 65.2313 165.914 72.4761C168.284 74.7104 170.18 77.2495 171.602 80.0933C171.602 73.8641 170.789 67.4318 169.164 60.7964C167.607 54.0933 166.828 50.0985 166.828 48.812C166.828 47.5256 167.065 46.5099 167.539 45.7651C168.081 44.9526 168.69 44.3433 169.367 43.937C170.383 43.3276 171.534 43.0229 172.82 43.0229H181.555C187.174 43.0229 189.984 50.8433 189.984 66.4839C189.984 79.0099 187.479 90.5542 182.469 101.117C182.604 102.606 182.672 104.57 182.672 107.007C182.672 109.445 182.13 112.289 181.047 115.539C179.964 118.789 178.508 121.835 176.68 124.679C174.919 127.455 172.854 130.028 170.484 132.398C168.182 134.768 165.711 136.968 163.07 139C160.497 141.031 157.891 142.893 155.25 144.585C140.422 153.997 131.552 159.888 128.641 162.257C125.729 164.559 123.698 166.421 122.547 167.843ZM117.875 120.718C120.177 122.682 122.852 124.205 125.898 125.289C129.013 126.304 132.297 126.812 135.75 126.812C139.271 126.812 142.487 126.304 145.398 125.289C148.31 124.205 150.883 122.648 153.117 120.617C157.857 116.351 160.227 110.867 160.227 104.164C160.227 97.325 157.586 91.9422 152.305 88.0151C147.633 84.562 141.878 82.8354 135.039 82.8354C124.206 82.8354 116.724 86.8641 112.594 94.9214C111.24 97.562 110.562 100.643 110.562 104.164C110.562 107.617 111.206 110.731 112.492 113.507C113.779 116.283 115.573 118.687 117.875 120.718ZM113 186.632C110.495 189.476 109.242 192.625 109.242 196.078C109.242 199.531 110.089 202.476 111.781 204.914C113.474 207.351 115.708 209.382 118.484 211.007C123.833 214.054 130.536 215.578 138.594 215.578C151.323 215.578 160.193 212.429 165.203 206.132C166.828 204.033 167.641 201.393 167.641 198.21C167.641 195.028 166.625 192.32 164.594 190.085C162.63 187.851 160.159 186.125 157.18 184.906C152.237 182.875 145.805 181.859 137.883 181.859C125.695 181.859 117.401 183.45 113 186.632Z" fill="#28CC97"/>
<path d="M189.563 64.1863C188.678 66.7487 186.861 68.8847 184.475 70.1707C182.088 71.4567 179.305 71.7987 176.678 71.1289C174.051 70.4591 171.772 68.8264 170.292 66.5547C168.812 64.283 168.241 61.5381 168.69 58.8645C169.986 49.9958 169.991 47.5447 167.393 43.3676C170.818 42.9273 174.504 42.5785 180.073 44.5218C188.09 47.3197 192.219 56.5769 189.563 64.1863Z" stroke="#292E32" stroke-width="2" stroke-linecap="round" stroke-linejoin="round"/>
<path d="M178.919 57.2011C179.868 59.1676 180.812 63.5852 180.28 67.3571C180.058 68.9321 180.096 69.8958 180.461 71.2104" stroke="#292E32" stroke-width="2" stroke-linecap="round" stroke-linejoin="round"/>
<path d="M177.461 43.2104L175.961 39.7104L177.961 38.7104L186.961 38.7104L191.461 46.7104L188.961 50.7104L183.961 47.2104L177.461 43.2104Z" fill="#292E32"/>
<path d="M168.961 48.7104L167.961 44.7104L166.461 45.2104L164.211 48.7104L163.461 55.2104L167.961 56.7104L168.961 54.7104L168.961 48.7104Z" fill="#292E32"/>
</svg>
