<svg width="111" height="207" viewBox="0 0 111 207" fill="none" xmlns="http://www.w3.org/2000/svg">
<path d="M35.5469 137.843C41.9115 134.729 48.6484 133.171 55.7578 133.171C62.9349 133.171 69.2995 133.848 74.8516 135.203C80.4714 136.489 85.5156 138.554 89.9844 141.398C100.005 147.763 105.016 156.666 105.016 168.109C105.016 180.026 99.3281 189.606 87.9531 196.851C77.8646 203.216 65.7448 206.398 51.5938 206.398C37.1719 206.398 25.1536 203.283 15.5391 197.054C5.17969 190.283 0 181.075 0 169.429C0 155.278 7.48177 141.601 22.4453 128.398C28.2682 123.32 34.7005 118.75 41.7422 114.687C30.7057 113.671 21.2943 109.778 13.5078 103.007C4.77344 95.3563 0.40625 85.8433 0.40625 74.4683C0.40625 61.4006 5.3151 50.8042 15.1328 42.6792C24.138 35.299 34.8698 31.6089 47.3281 31.6089C60.7344 31.6089 71.263 35.2313 78.9141 42.4761C81.2839 44.7104 83.1797 47.2495 84.6016 50.0933C84.6016 43.8641 83.7891 37.4318 82.1641 30.7964C80.6068 24.0933 79.8281 20.0985 79.8281 18.812C79.8281 17.5256 80.0651 16.5099 80.5391 15.7651C81.0807 14.9526 81.6901 14.3433 82.3672 13.937C83.3828 13.3276 84.5339 13.0229 85.8203 13.0229H94.5547C100.174 13.0229 102.984 20.8433 102.984 36.4839C102.984 49.0099 100.479 60.5542 95.4688 71.1167C95.6042 72.6063 95.6719 74.5698 95.6719 77.0073C95.6719 79.4448 95.1302 82.2886 94.0469 85.5386C92.9635 88.7886 91.5078 91.8354 89.6797 94.6792C87.9193 97.4552 85.8542 100.028 83.4844 102.398C81.1823 104.768 78.7109 106.968 76.0703 109C73.4974 111.031 70.8906 112.893 68.25 114.585C53.4219 123.997 44.5521 129.888 41.6406 132.257C38.7292 134.559 36.6979 136.421 35.5469 137.843ZM30.875 90.7183C33.1771 92.6818 35.8516 94.2052 38.8984 95.2886C42.013 96.3042 45.2969 96.812 48.75 96.812C52.2708 96.812 55.487 96.3042 58.3984 95.2886C61.3099 94.2052 63.8828 92.6479 66.1172 90.6167C70.8568 86.3511 73.2266 80.8667 73.2266 74.1636C73.2266 67.325 70.5859 61.9422 65.3047 58.0151C60.6328 54.562 54.8776 52.8354 48.0391 52.8354C37.2057 52.8354 29.724 56.8641 25.5938 64.9214C24.2396 67.562 23.5625 70.6427 23.5625 74.1636C23.5625 77.6167 24.2057 80.7313 25.4922 83.5073C26.7786 86.2834 28.5729 88.687 30.875 90.7183ZM26 156.632C23.4948 159.476 22.2422 162.625 22.2422 166.078C22.2422 169.531 23.0885 172.476 24.7812 174.914C26.474 177.351 28.7083 179.382 31.4844 181.007C36.8333 184.054 43.5365 185.578 51.5938 185.578C64.3229 185.578 73.1927 182.429 78.2031 176.132C79.8281 174.033 80.6406 171.393 80.6406 168.21C80.6406 165.028 79.625 162.32 77.5938 160.085C75.6302 157.851 73.1589 156.125 70.1797 154.906C65.237 152.875 58.8047 151.859 50.8828 151.859C38.6953 151.859 30.401 153.45 26 156.632Z" fill="#28CC97"/>
<path d="M102.563 34.1863C101.678 36.7487 99.8613 38.8847 97.4746 40.1707C95.0879 41.4567 92.3051 41.7987 89.678 41.1289C87.051 40.4591 84.7716 38.8264 83.292 36.5547C81.8123 34.283 81.2405 31.5381 81.69 28.8645C82.9861 19.9958 82.9912 17.5447 80.3934 13.3676C83.8176 12.9273 87.5042 12.5785 93.0728 14.5218C101.09 17.3197 105.219 26.5769 102.563 34.1863Z" stroke="#292E32" stroke-width="2" stroke-linecap="round" stroke-linejoin="round"/>
<path d="M91.9186 27.2011C92.8677 29.1676 93.8117 33.5852 93.2803 37.3571C93.0581 38.9321 93.0962 39.8958 93.4614 41.2104" stroke="#292E32" stroke-width="2" stroke-linecap="round" stroke-linejoin="round"/>
<path d="M90.4614 13.2104L88.9614 9.71043L90.9614 8.71045L99.9614 8.71045L104.461 16.7104L101.961 20.7104L96.9614 17.2104L90.4614 13.2104Z" fill="#292E32"/>
<path d="M81.9614 18.7104L80.9614 14.7104L79.4614 15.2104L77.2114 18.7104L76.4614 25.2104L80.9614 26.7104L81.9614 24.7104L81.9614 18.7104Z" fill="#292E32"/>
</svg>
